<svg xmlns="http://www.w3.org/2000/svg" enable-background="new 0 0 4000 4000" viewBox="0 0 4000 4000"><linearGradient id="a" x1="1360.795" x2="2639.205" y1="688.795" y2="1967.205" gradientUnits="userSpaceOnUse"><stop offset="0" stop-color="#e8e8e8"/><stop offset="1" stop-color="#bab8d4"/></linearGradient><path fill="url(#a)" d="M3120,1440H880c-61.852,0-112-50.094-112-112s50.148-112,112-112h2240    c61.852,0,112,50.094,112,112S3181.852,1440,3120,1440z"/><linearGradient id="b" x1="1360.795" x2="2639.205" y1="1360.795" y2="2639.205" gradientUnits="userSpaceOnUse"><stop offset="0" stop-color="#e8e8e8"/><stop offset="1" stop-color="#bab8d4"/></linearGradient><path fill="url(#b)" d="M3120,2112H880    c-61.852,0-112-50.094-112-112s50.148-112,112-112h2240c61.852,0,112,50.094,112,112S3181.852,2112,3120,2112z"/><linearGradient id="c" x1="1360.795" x2="2639.205" y1="2032.795" y2="3311.205" gradientUnits="userSpaceOnUse"><stop offset="0" stop-color="#e8e8e8"/><stop offset="1" stop-color="#bab8d4"/></linearGradient><path fill="url(#c)" d="M3120,2784H880    c-61.852,0-112-50.094-112-112s50.148-112,112-112h2240c61.852,0,112,50.094,112,112S3181.852,2784,3120,2784z"/></svg>