<svg width="32" height="32" viewBox="0 0 32 32" fill="none" xmlns="http://www.w3.org/2000/svg">
<path d="M30.3912 23.0358C30.3559 22.956 30.3231 22.8897 30.2924 22.8366C29.7878 21.8807 28.8233 20.7073 27.3995 19.3162L27.3695 19.2843L27.3545 19.2688L27.3391 19.2527H27.3239C26.6777 18.605 26.2685 18.1694 26.0972 17.9465C25.7838 17.5217 25.7134 17.0917 25.8848 16.656C26.0059 16.3269 26.4607 15.6318 27.248 14.5696C27.6621 14.0068 27.9901 13.5557 28.2324 13.2158C29.9795 10.7733 30.7369 9.21258 30.5045 8.53289L30.4143 8.37405C30.3536 8.27843 30.1971 8.19096 29.9448 8.11118C29.6923 8.03157 29.3691 8.0184 28.9753 8.07146L24.6133 8.10314C24.5426 8.07681 24.4416 8.07927 24.3102 8.11118C24.179 8.1431 24.1132 8.1591 24.1132 8.1591L24.0373 8.19899L23.9771 8.24691C23.9266 8.27861 23.871 8.33434 23.8103 8.41401C23.7499 8.49339 23.6997 8.58656 23.6592 8.69273C23.1843 9.97762 22.6445 11.1722 22.0384 12.2765C21.6648 12.935 21.3217 13.5057 21.0084 13.9888C20.6953 14.472 20.4327 14.8278 20.2208 15.056C20.0086 15.2842 19.8171 15.4672 19.6451 15.6054C19.4735 15.7437 19.3425 15.802 19.2516 15.7806C19.1606 15.7594 19.075 15.7382 18.9938 15.7169C18.8526 15.6212 18.7389 15.4912 18.6533 15.3266C18.5672 15.1621 18.5093 14.9549 18.4791 14.7053C18.4488 14.4556 18.4311 14.2408 18.426 14.0602C18.4212 13.88 18.4234 13.6248 18.4337 13.2956C18.4441 12.9663 18.4488 12.7435 18.4488 12.6267C18.4488 12.2231 18.4563 11.7851 18.4712 11.3126C18.4866 10.84 18.499 10.4656 18.5093 10.1898C18.5196 9.91367 18.5244 9.62158 18.5244 9.31362C18.5244 9.00565 18.5065 8.76414 18.4712 8.58885C18.4366 8.41378 18.3832 8.24385 18.3128 8.07911C18.2419 7.91452 18.1383 7.78721 18.0023 7.69683C17.866 7.60657 17.6964 7.53493 17.4948 7.48171C16.9596 7.35433 16.278 7.28543 15.4499 7.27473C13.5718 7.25353 12.3651 7.38106 11.8299 7.65717C11.6179 7.77383 11.426 7.93321 11.2544 8.13484C11.0726 8.36853 11.0473 8.49608 11.1785 8.51705C11.7845 8.61251 12.2134 8.84086 12.4659 9.20187L12.5569 9.39318C12.6276 9.53119 12.6983 9.77555 12.769 10.1259C12.8396 10.4763 12.8852 10.8638 12.9052 11.2884C12.9557 12.0637 12.9557 12.7274 12.9052 13.2795C12.8547 13.8317 12.807 14.2617 12.7614 14.5698C12.7158 14.8777 12.6477 15.1272 12.5569 15.3184C12.4659 15.5095 12.4054 15.6263 12.375 15.6687C12.3447 15.7111 12.3195 15.7378 12.2994 15.7482C12.1682 15.8012 12.0317 15.8281 11.8904 15.8281C11.7489 15.8281 11.5773 15.7537 11.3754 15.6049C11.1736 15.4562 10.9641 15.252 10.7469 14.9917C10.5298 14.7314 10.2849 14.3678 10.0122 13.9006C9.73967 13.4334 9.4569 12.8812 9.16407 12.2441L8.92178 11.7821C8.77033 11.4848 8.56343 11.052 8.30089 10.484C8.03818 9.91581 7.80598 9.36616 7.60412 8.83521C7.52342 8.61222 7.40219 8.44245 7.24067 8.32563L7.16487 8.2777C7.11446 8.23532 7.03356 8.19029 6.92258 8.1423C6.81144 8.09438 6.69546 8.06003 6.57419 8.03888L2.42408 8.07057C2 8.07057 1.71225 8.1716 1.56073 8.37339L1.5001 8.46885C1.46981 8.52201 1.45453 8.60692 1.45453 8.72381C1.45453 8.84063 1.48482 8.98402 1.54546 9.15377C2.1513 10.6512 2.81014 12.0953 3.52197 13.4863C4.23381 14.8773 4.85237 15.998 5.3773 16.847C5.90235 17.6966 6.43754 18.4985 6.98284 19.2521C7.52814 20.0062 7.8891 20.4893 8.06572 20.7016C8.24253 20.9143 8.38141 21.0733 8.48236 21.1794L8.8611 21.5616C9.10344 21.8166 9.45929 22.1219 9.92885 22.4775C10.3985 22.8334 10.9185 23.1837 11.489 23.5291C12.0596 23.874 12.7234 24.1553 13.4808 24.373C14.2381 24.5908 14.9752 24.6783 15.6921 24.6361H17.4341C17.7873 24.6039 18.055 24.4873 18.2368 24.2857L18.2971 24.2058C18.3377 24.1423 18.3756 24.044 18.4106 23.9114C18.446 23.7787 18.4635 23.6325 18.4635 23.4734C18.4532 23.0169 18.4863 22.6053 18.562 22.2391C18.6374 21.8729 18.7234 21.5968 18.8196 21.4109C18.9159 21.2251 19.0243 21.0683 19.1452 20.9412C19.2662 20.8139 19.3525 20.7368 19.4032 20.7102C19.4534 20.6835 19.4936 20.6653 19.5239 20.6543C19.7662 20.5695 20.0514 20.6517 20.3799 20.9015C20.7081 21.1511 21.0161 21.4591 21.304 21.8253C21.5918 22.1918 21.9376 22.6032 22.3412 23.0596C22.7455 23.5163 23.0988 23.8558 23.4014 24.0792L23.7044 24.2703C23.9067 24.3977 24.1692 24.5147 24.4924 24.6208C24.8151 24.727 25.0977 24.7536 25.3402 24.7004L29.2176 24.6368C29.6012 24.6368 29.8996 24.5701 30.1112 24.4376C30.3234 24.3048 30.4494 24.1585 30.4899 23.9996C30.5305 23.8404 30.5327 23.6597 30.4976 23.4577C30.4617 23.2562 30.4263 23.1153 30.3912 23.0358Z" fill="white"/>
</svg>
