<svg width="32" height="32" viewBox="0 0 32 32" fill="none" xmlns="http://www.w3.org/2000/svg">
<path d="M29.4115 7.69131C28.3615 6.36099 26.4227 5.81836 22.7202 5.81836H9.27965C5.49229 5.81836 3.52067 6.396 2.47453 7.81229C1.45456 9.1932 1.45456 11.2279 1.45456 14.0439V19.4111C1.45456 24.8667 2.66474 27.6365 9.27965 27.6365H22.7202C25.9311 27.6365 27.7103 27.1579 28.8614 25.9837C30.0419 24.7798 30.5455 22.8143 30.5455 19.4111V14.0439C30.5455 11.0741 30.4666 9.02749 29.4115 7.69131ZM20.1311 17.4685L14.0277 20.8678C13.8913 20.9439 13.7421 20.9816 13.5931 20.9816C13.4243 20.9816 13.256 20.9331 13.1069 20.837C12.8261 20.6556 12.6546 20.3314 12.6546 19.9814V13.2046C12.6546 12.8554 12.8256 12.5313 13.1058 12.3499C13.3862 12.1685 13.7348 12.1561 14.0256 12.3171L20.1289 15.6946C20.4394 15.8664 20.6343 16.208 20.6348 16.5807C20.6352 16.9538 20.4412 17.2959 20.1311 17.4685Z" fill="white"/>
</svg>
